<?xml version="1.0" encoding="utf-8"?>
<!-- Generator: Adobe Illustrator 18.1.0, SVG Export Plug-In . SVG Version: 6.00 Build 0)  -->
<!DOCTYPE svg PUBLIC "-//W3C//DTD SVG 1.0//EN" "http://www.w3.org/TR/2001/REC-SVG-20010904/DTD/svg10.dtd">
<svg version="1.0" xmlns="http://www.w3.org/2000/svg" xmlns:xlink="http://www.w3.org/1999/xlink" x="0px" y="0px"
	 viewBox="0 0 172.1 129.5" enable-background="new 0 0 172.1 129.5" xml:space="preserve">
<g id="Art">
</g>
<g id="Layer_2">
	<path fill="none" stroke="#000000" stroke-width="0.5" d="M158.7,89c0,4.1-3.3,7.4-7.4,7.4H17.1c-4.1,0-7.5-3.3-7.5-7.4V44.5
		c0-4.1,3.3-7.4,7.5-7.4h134.1c4.1,0,7.4,3.3,7.4,7.4V89z"/>
	<rect x="20.5" y="30.4" fill="#FFFFFF" width="39.3" height="13.2"/>
	<rect x="123.4" y="30.4" fill="#FFFFFF" width="24.8" height="13.2"/>
	<text transform="matrix(1 0 0 1 24.0933 39.0176)" font-family="'ArialMT'" font-size="8">hash-key</text>
	<text transform="matrix(1 0 0 1 127.5796 39.0176)" font-family="'ArialMT'" font-size="8">hash</text>
	<line fill="none" stroke="#000000" stroke-width="0.5" x1="9.7" y1="46.5" x2="158.7" y2="46.5"/>
	<text transform="matrix(1 0 0 1 10.541 8.4629)" fill="#808080" font-family="'ArialMT'" font-size="8">Key name</text>
	<text transform="matrix(1 0 0 1 4.4609 116.8545)"><tspan x="0" y="0" fill="#808080" font-family="'ArialMT'" font-size="8">Distinct keys,</tspan><tspan x="-4.5" y="10" fill="#808080" font-family="'ArialMT'" font-size="8">undefined order</tspan></text>
	<text transform="matrix(1 0 0 1 75.8262 116.1318)"><tspan x="0" y="0" fill="#808080" font-family="'ArialMT'" font-size="8">Values associated</tspan><tspan x="9.3" y="10" fill="#808080" font-family="'ArialMT'" font-size="8">with the keys</tspan></text>
	<text transform="matrix(1 0 0 1 124.2505 6.8652)" fill="#808080" font-family="'ArialMT'" font-size="8">Type of value</text>
	<text transform="matrix(1 0 0 1 24.0933 62.2949)" font-family="'ArialMT'" font-size="8">sub-key1     value1</text>
	<text transform="matrix(1 0 0 1 24.0933 74.6836)" font-family="'ArialMT'" font-size="8">sub-key2     value2</text>
	<line fill="none" stroke="#949494" stroke-width="0.5" stroke-dasharray="3" x1="62.6" y1="46.5" x2="62.6" y2="96.4"/>
	<g>
		<g>
			<path fill="none" stroke="#949494" stroke-width="0.5" stroke-linejoin="round" d="M28.6,11.8c1.9,9.1,10.3,8.7,11,16.1"/>
			<path fill="#949494" d="M40.1,29c0.2-0.8,0.4-1.4,0.6-2.1l-2.5,0.2c0.1,0.2,0.6,1.2,0.9,2c0.3,0.9,0.6,1.6,0.7,2.2
				C39.8,30.7,39.9,29.9,40.1,29z"/>
		</g>
	</g>
	<g>
		<g>
			<path fill="none" stroke="#949494" stroke-width="0.5" stroke-linejoin="round" d="M148.3,10.1c0.2,10.3-12,9.7-12,19.3"/>
			<path fill="#949494" d="M136.8,30.7c0.2-0.8,0.5-1.4,0.7-2l-2.5,0c0.1,0.2,0.5,1.2,0.8,2c0.3,0.9,0.5,1.7,0.5,2.2
				C136.3,32.3,136.5,31.5,136.8,30.7z"/>
		</g>
	</g>
	<g>
		<g>
			<path fill="none" stroke="#949494" stroke-width="0.5" stroke-linejoin="round" d="M117.2,107.7c-1.9-9.1-35.8-12.3-36.5-19.7"/>
			<path fill="#949494" d="M80.1,86.9c-0.2,0.8-0.4,1.4-0.6,2.1l2.5-0.2c-0.1-0.2-0.6-1.2-0.9-2c-0.3-0.9-0.6-1.6-0.7-2.2
				C80.4,85.2,80.3,86,80.1,86.9z"/>
		</g>
	</g>
	<g>
		<g>
			<path fill="none" stroke="#949494" stroke-width="0.5" stroke-linejoin="round" d="M28,107.7c-0.2-10.3,12-9.7,12-19.3"/>
			<path fill="#949494" d="M39.5,87.2c-0.2,0.8-0.5,1.4-0.7,2l2.5,0c-0.1-0.2-0.5-1.2-0.8-2c-0.3-0.9-0.5-1.7-0.5-2.2
				C40,85.5,39.8,86.3,39.5,87.2z"/>
		</g>
	</g>
</g>
</svg>
