<?xml version="1.0" encoding="utf-8"?>
<!-- Generator: Adobe Illustrator 18.1.0, SVG Export Plug-In . SVG Version: 6.00 Build 0)  -->
<!DOCTYPE svg PUBLIC "-//W3C//DTD SVG 1.0//EN" "http://www.w3.org/TR/2001/REC-SVG-20010904/DTD/svg10.dtd">
<svg version="1.0" xmlns="http://www.w3.org/2000/svg" xmlns:xlink="http://www.w3.org/1999/xlink" x="0px" y="0px"
	 viewBox="0 0 170.1 111.8" enable-background="new 0 0 170.1 111.8" xml:space="preserve">
<g id="Art">
</g>
<g id="Layer_2">
	<text transform="matrix(1 0 0 1 0 7.0527)" fill="#808080" font-family="'ArialMT'" font-size="8">Key name</text>
	<text transform="matrix(1 0 0 1 0.6226 109.2314)" fill="#808080" font-family="'ArialMT'" font-size="8">List of values, duplicates possible</text>
	<g>
		<g>
			<path fill="none" stroke="#949494" stroke-width="0.5" stroke-linejoin="round" d="M18,11c1.9,9.1,10.3,8.7,11,16.1"/>
			<path fill="#949494" d="M29.6,28.2c0.2-0.8,0.4-1.4,0.6-2.1l-2.5,0.2c0.1,0.2,0.6,1.2,0.9,2c0.3,0.9,0.6,1.6,0.7,2.2
				C29.3,29.9,29.4,29.1,29.6,28.2z"/>
		</g>
	</g>
	<g>
		<g>
			<path fill="none" stroke="#949494" stroke-width="0.5" stroke-linejoin="round" d="M60,100.7c0-14.7,0-22.1-13.2-30.6"/>
			<path fill="#949494" d="M45.6,69.9c0.6,0.7,0.9,1.1,1.3,1.7l1.4-2.1c-0.3,0-1.3-0.2-2.1-0.5c-0.9-0.3-1.7-0.5-2.1-0.8
				C44.4,68.6,45,69.1,45.6,69.9z"/>
		</g>
	</g>
	<path fill="none" stroke="#000000" stroke-width="0.5" d="M152.8,82c0,4.1-3.3,7.4-7.4,7.4H11.2c-4.1,0-7.5-3.3-7.5-7.4V45.9
		c0-4.1,3.3-7.5,7.5-7.5h134.1c4.1,0,7.4,3.3,7.4,7.5V82z"/>
	<rect x="14.6" y="31.8" fill="#FFFFFF" width="32.2" height="13.2"/>
	<rect x="124.6" y="31.8" fill="#FFFFFF" width="17.7" height="13.2"/>
	<text transform="matrix(1 0 0 1 18.2021 40.4424)" font-family="'ArialMT'" font-size="8">list-key</text>
	<text transform="matrix(1 0 0 1 18.2021 55.4365)" font-family="'ArialMT'" font-size="8">item</text>
	<text transform="matrix(1 0 0 1 18.2021 67.8252)" font-family="'ArialMT'" font-size="8">item2</text>
	<text transform="matrix(1 0 0 1 18.2021 80.2139)" font-family="'ArialMT'" font-size="8">item</text>
	<text transform="matrix(1 0 0 1 129.2588 40.4424)" font-family="'ArialMT'" font-size="8">list</text>
	<text transform="matrix(1 0 0 1 122.3213 6.8652)" fill="#808080" font-family="'ArialMT'" font-size="8">Type of value</text>
	<g>
		<g>
			<path fill="none" stroke="#949494" stroke-width="0.5" stroke-linejoin="round" d="M146.3,9.5c0.2,10.3-12,9.7-12,19.3"/>
			<path fill="#949494" d="M134.8,30c0.2-0.8,0.5-1.4,0.7-2l-2.5,0c0.1,0.2,0.5,1.2,0.8,2c0.3,0.9,0.5,1.7,0.5,2.2
				C134.4,31.7,134.6,30.9,134.8,30z"/>
		</g>
	</g>
</g>
</svg>
