<?xml version="1.0" encoding="utf-8"?>
<!-- Generator: Adobe Illustrator 18.1.0, SVG Export Plug-In . SVG Version: 6.00 Build 0)  -->
<!DOCTYPE svg PUBLIC "-//W3C//DTD SVG 1.0//EN" "http://www.w3.org/TR/2001/REC-SVG-20010904/DTD/svg10.dtd">
<svg version="1.0" xmlns="http://www.w3.org/2000/svg" xmlns:xlink="http://www.w3.org/1999/xlink" x="0px" y="0px"
	 viewBox="0 0 178.8 112.7" enable-background="new 0 0 178.8 112.7" xml:space="preserve">
<g id="Art">
</g>
<g id="Layer_2">
	<text transform="matrix(1 0 0 1 6.7617 7.0527)" fill="#808080" font-family="'ArialMT'" font-size="8">Key name</text>
	<text transform="matrix(1 0 0 1 0 110.0986)" fill="#808080" font-family="'ArialMT'" font-size="8">Set of distinct values, undefined order</text>
	<text transform="matrix(1 0 0 1 130.9561 6.8652)" fill="#808080" font-family="'ArialMT'" font-size="8">Type of value</text>
	<g>
		<g>
			<path fill="none" stroke="#949494" stroke-width="0.5" stroke-linejoin="round" d="M66.9,101.3c0-15.5,0-23.3-13.9-32.3"/>
			<path fill="#949494" d="M51.8,68.7c0.6,0.7,0.9,1.1,1.3,1.7l1.4-2.1c-0.3,0-1.3-0.2-2.1-0.5c-0.9-0.3-1.7-0.5-2.1-0.8
				C50.6,67.4,51.2,68,51.8,68.7z"/>
		</g>
	</g>
	<path fill="none" stroke="#000000" stroke-width="0.5" d="M159,80.9c0,4.1-3.3,7.4-7.4,7.4H17.4c-4.1,0-7.5-3.3-7.5-7.4V44.7
		c0-4.1,3.3-7.5,7.5-7.5h134.1c4.1,0,7.4,3.3,7.4,7.5V80.9z"/>
	<rect x="20.8" y="30.7" fill="#FFFFFF" width="33.2" height="13.2"/>
	<rect x="130.8" y="30.7" fill="#FFFFFF" width="17.7" height="13.2"/>
	<text transform="matrix(1 0 0 1 24.4082 39.3096)" font-family="'ArialMT'" font-size="8">set-key</text>
	<text transform="matrix(1 0 0 1 24.4082 54.3037)" font-family="'ArialMT'" font-size="8">item2</text>
	<text transform="matrix(1 0 0 1 24.4082 66.6924)" font-family="'ArialMT'" font-size="8">item</text>
	<text transform="matrix(1 0 0 1 24.4082 79.081)" font-family="'ArialMT'" font-size="8">item3</text>
	<text transform="matrix(1 0 0 1 134.5703 39.3096)" font-family="'ArialMT'" font-size="8">set</text>
	<g>
		<g>
			<path fill="none" stroke="#949494" stroke-width="0.5" stroke-linejoin="round" d="M25.5,11.6c1.9,9.1,10.3,8.7,11,16.1"/>
			<path fill="#949494" d="M37,28.9c0.2-0.8,0.4-1.4,0.6-2.1L35.1,27c0.1,0.2,0.6,1.2,0.9,2c0.3,0.9,0.6,1.6,0.7,2.2
				C36.7,30.6,36.8,29.8,37,28.9z"/>
		</g>
	</g>
	<g>
		<g>
			<path fill="none" stroke="#949494" stroke-width="0.5" stroke-linejoin="round" d="M153.8,10.2c0.2,10.3-12,9.7-12,19.3"/>
			<path fill="#949494" d="M142.3,30.7c0.2-0.8,0.5-1.4,0.7-2l-2.5,0c0.1,0.2,0.5,1.2,0.8,2c0.3,0.9,0.5,1.7,0.5,2.2
				C141.8,32.4,142,31.6,142.3,30.7z"/>
		</g>
	</g>
</g>
</svg>
