<?xml version="1.0" encoding="utf-8"?>
<!-- Generator: Adobe Illustrator 18.1.0, SVG Export Plug-In . SVG Version: 6.00 Build 0)  -->
<!DOCTYPE svg PUBLIC "-//W3C//DTD SVG 1.0//EN" "http://www.w3.org/TR/2001/REC-SVG-20010904/DTD/svg10.dtd">
<svg version="1.0" xmlns="http://www.w3.org/2000/svg" xmlns:xlink="http://www.w3.org/1999/xlink" x="0px" y="0px"
	 viewBox="0 0 177.4 132.2" enable-background="new 0 0 177.4 132.2" xml:space="preserve">
<g id="Art">
</g>
<g id="Layer_2">
	<path fill="none" stroke="#000000" stroke-width="0.5" d="M162,79.5c0,4.1-3.3,7.4-7.4,7.4H20.5c-4.1,0-7.5-3.3-7.5-7.4V45
		c0-4.1,3.3-7.4,7.5-7.4h134.1c4.1,0,7.4,3.3,7.4,7.4V79.5z"/>
	<rect x="23.8" y="31" fill="#FFFFFF" width="39.3" height="13.2"/>
	<rect x="126.7" y="31" fill="#FFFFFF" width="24.8" height="13.2"/>
	<text transform="matrix(1 0 0 1 27.4409 39.5898)" font-family="'ArialMT'" font-size="8">zset-key</text>
	<text transform="matrix(1 0 0 1 133.603 39.5898)" font-family="'ArialMT'" font-size="8">zset</text>
	<line fill="none" stroke="#000000" stroke-width="0.5" x1="13" y1="47" x2="162" y2="47"/>
	<text transform="matrix(1 0 0 1 11.832 7.0527)" fill="#808080" font-family="'ArialMT'" font-size="8">Key name</text>
	<text transform="matrix(1 0 0 1 0 109.5781)"><tspan x="0" y="0" fill="#808080" font-family="'ArialMT'" font-size="8">Named members,</tspan><tspan x="12.7" y="10" fill="#808080" font-family="'ArialMT'" font-size="8">ordered by</tspan><tspan x="1.8" y="20" fill="#808080" font-family="'ArialMT'" font-size="8">associated score</tspan></text>
	<text transform="matrix(1 0 0 1 103.0723 107.3623)"><tspan x="0" y="0" fill="#808080" font-family="'ArialMT'" font-size="8">Scores, ordered</tspan><tspan x="-1.8" y="10" fill="#808080" font-family="'ArialMT'" font-size="8">by numeric value</tspan></text>
	<text transform="matrix(1 0 0 1 129.5952 6.8652)" fill="#808080" font-family="'ArialMT'" font-size="8">Type of value</text>
	<text transform="matrix(1 0 0 1 27.4409 62.8672)" font-family="'ArialMT'" font-size="8">member1</text>
	<text transform="matrix(1 0 0 1 112.707 62.8672)" font-family="'ArialMT'" font-size="8">728</text>
	<text transform="matrix(1 0 0 1 27.4409 75.2559)" font-family="'ArialMT'" font-size="8">member0</text>
	<text transform="matrix(1 0 0 1 112.7065 75.2559)" font-family="'ArialMT'" font-size="8">982</text>
	<line fill="none" stroke="#949494" stroke-width="0.5" stroke-dasharray="3" x1="87.5" y1="47" x2="87.5" y2="87"/>
	<g>
		<g>
			<path fill="none" stroke="#949494" stroke-width="0.5" stroke-linejoin="round" d="M30.3,11c1.9,9.1,10.3,8.7,11,16.1"/>
			<path fill="#949494" d="M41.9,28.2c0.2-0.8,0.4-1.4,0.6-2.1l-2.5,0.2c0.1,0.2,0.6,1.2,0.9,2c0.3,0.9,0.6,1.6,0.7,2.2
				C41.6,29.9,41.7,29.1,41.9,28.2z"/>
		</g>
	</g>
	<g>
		<g>
			<path fill="none" stroke="#949494" stroke-width="0.5" stroke-linejoin="round" d="M153.6,9.5c0.2,10.3-12,9.7-12,19.3"/>
			<path fill="#949494" d="M142.2,30c0.2-0.8,0.5-1.4,0.7-2l-2.5,0c0.1,0.2,0.5,1.2,0.8,2c0.3,0.9,0.5,1.7,0.5,2.2
				C141.7,31.7,141.9,30.9,142.2,30z"/>
		</g>
	</g>
	<g>
		<g>
			<path fill="none" stroke="#949494" stroke-width="0.5" stroke-linejoin="round" d="M131.5,99.6c-1.9-9.1-10.3-8.7-11-16.1"/>
			<path fill="#949494" d="M120,82.3c-0.2,0.8-0.4,1.4-0.6,2.1l2.5-0.2c-0.1-0.2-0.6-1.2-0.9-2c-0.3-0.9-0.6-1.6-0.7-2.2
				C120.3,80.6,120.2,81.4,120,82.3z"/>
		</g>
	</g>
	<g>
		<g>
			<path fill="none" stroke="#949494" stroke-width="0.5" stroke-linejoin="round" d="M31.8,101.1c-0.2-10.3,12-9.7,12-19.3"/>
			<path fill="#949494" d="M43.3,80.5c-0.2,0.8-0.5,1.4-0.7,2l2.5,0c-0.1-0.2-0.5-1.2-0.8-2c-0.3-0.9-0.5-1.7-0.5-2.2
				C43.7,78.8,43.5,79.6,43.3,80.5z"/>
		</g>
	</g>
</g>
</svg>
