<?xml version="1.0" encoding="utf-8"?>
<!-- Generator: Adobe Illustrator 18.1.0, SVG Export Plug-In . SVG Version: 6.00 Build 0)  -->
<!DOCTYPE svg PUBLIC "-//W3C//DTD SVG 1.0//EN" "http://www.w3.org/TR/2001/REC-SVG-20010904/DTD/svg10.dtd">
<svg version="1.0" xmlns="http://www.w3.org/2000/svg" xmlns:xlink="http://www.w3.org/1999/xlink" x="0px" y="0px"
	 viewBox="0 0 167.9 100.8" enable-background="new 0 0 167.9 100.8" xml:space="preserve">
<g id="Art">
</g>
<g id="Layer_2">
	<text transform="matrix(1 0 0 1 12.1191 98.209)" fill="#808080" font-family="'ArialMT'" font-size="8">Value stored</text>
	<g>
		<g>
			<path fill="none" stroke="#949494" stroke-width="0.5" stroke-linejoin="round" d="M34.6,89.3c-0.5-9.8-7.3-10.3-6.7-18.1"/>
			<path fill="#949494" d="M27.4,70c-0.3,0.8-0.6,1.3-0.9,2l2.5,0.2c-0.1-0.2-0.4-1.2-0.6-2.1c-0.2-0.9-0.3-1.7-0.4-2.2
				C28,68.3,27.8,69.1,27.4,70z"/>
		</g>
	</g>
	<path fill="none" stroke="#000000" stroke-width="0.5" d="M153.5,59.1c0,4.1-3.3,7.4-7.4,7.4H12c-4.1,0-7.5-3.3-7.5-7.4V44.6
		c0-4.1,3.3-7.4,7.5-7.4h134.1c4.1,0,7.4,3.3,7.4,7.4V59.1z"/>
	<rect x="15.4" y="30.5" fill="#FFFFFF" width="28.2" height="13.2"/>
	<rect x="115.7" y="30.5" fill="#FFFFFF" width="27.4" height="13.2"/>
	<text transform="matrix(1 0 0 1 18.9512 39.1631)" font-family="'ArialMT'" font-size="8">hello</text>
	<text transform="matrix(1 0 0 1 18.9512 59.1572)" font-family="'ArialMT'" font-size="8">world</text>
	<text transform="matrix(1 0 0 1 120.2227 39.1631)" font-family="'ArialMT'" font-size="8">string</text>
	<text transform="matrix(1 0 0 1 120.1191 7.502)" fill="#808080" font-family="'ArialMT'" font-size="8">Type of value</text>
	<g>
		<g>
			<path fill="none" stroke="#949494" stroke-width="0.5" stroke-linejoin="round" d="M144.1,11.2C144.3,21.5,130,19,130,28.2"/>
			<path fill="#949494" d="M130.5,29.3c0.2-0.8,0.5-1.4,0.7-2l-2.5,0c0.1,0.2,0.5,1.2,0.8,2c0.3,0.9,0.5,1.7,0.5,2.2
				C130.1,31,130.3,30.2,130.5,29.3z"/>
		</g>
	</g>
	<text transform="matrix(1 0 0 1 0 6.8652)" fill="#808080" font-family="'ArialMT'" font-size="8">Key name</text>
	<g>
		<g>
			<path fill="none" stroke="#949494" stroke-width="0.5" stroke-linejoin="round" d="M18,11.6c1.9,9.1,9.4,6.8,9,16"/>
			<path fill="#949494" d="M27.5,28.8c0.3-0.8,0.5-1.3,0.8-2l-2.5-0.1c0.1,0.2,0.4,1.2,0.7,2.1c0.2,0.9,0.4,1.7,0.4,2.2
				C26.9,30.5,27.2,29.7,27.5,28.8z"/>
		</g>
	</g>
</g>
</svg>
